<svg width="205" height="205" viewBox="0 0 205 205" fill="none" xmlns="http://www.w3.org/2000/svg">
<path d="M205 102.5C205 159.109 159.109 205 102.5 205C45.8908 205 0 159.109 0 102.5C0 45.8908 45.8908 0 102.5 0C159.109 0 205 45.8908 205 102.5Z" fill="#345995"/>
<path d="M81.3495 103.409C81.3495 117.823 83.1391 128.179 86.7182 134.478C90.2974 140.655 95.6045 143.744 102.639 143.744C107.082 143.744 110.97 143.441 114.303 142.836C117.635 142.109 120.659 141.745 123.374 141.745C128.311 141.745 131.89 142.775 134.111 144.834C136.333 146.772 137.444 149.316 137.444 152.465C137.444 156.584 135.901 159.733 132.815 161.913C129.853 164.094 126.027 165.608 121.337 166.456C116.771 167.303 112.081 167.727 107.268 167.727C93.9383 167.727 83.3242 165.305 75.4253 160.46C67.6499 155.615 62.0343 148.468 58.5786 139.02C55.2462 129.451 53.5801 117.58 53.5801 103.409C53.5801 89.2366 55.2462 77.245 58.5786 67.4336C62.0343 57.5012 67.6499 49.9912 75.4253 44.9039C83.3242 39.8165 93.9383 37.2728 107.268 37.2728C112.081 37.2728 116.771 37.6968 121.337 38.5447C126.027 39.3926 129.853 40.9067 132.815 43.087C135.901 45.2673 137.444 48.4166 137.444 52.5349C137.444 55.5631 136.333 58.1068 134.111 60.166C131.89 62.2251 128.311 63.2547 123.374 63.2547C120.659 63.2547 117.635 62.9519 114.303 62.3463C110.97 61.6195 107.082 61.2561 102.639 61.2561C94 61.2561 88.261 64.7083 85.4223 71.6125C82.7071 78.3957 81.3495 88.9944 81.3495 103.409Z" fill="#FEFEFE"/>
<path d="M153.749 102.259C153.749 103.407 153.472 104.578 152.917 105.772C152.312 106.921 151.353 107.495 150.041 107.495H114.624C113.01 107.495 111.9 107.127 111.294 106.392C110.689 105.658 110.311 105.06 110.159 104.601V117.898C110.159 119 109.63 119.827 108.57 120.378C107.46 120.884 106.325 121.136 105.165 121.136C103.903 121.136 102.768 120.861 101.759 120.309C100.7 119.758 100.17 118.955 100.17 117.898V87.1016C100.17 86.0452 100.7 85.2414 101.759 84.6903C102.768 84.1391 103.903 83.8635 105.165 83.8635C106.325 83.8635 107.46 84.1391 108.57 84.6903C109.63 85.1955 110.159 85.9993 110.159 87.1016V97.5738H150.041C151.303 97.5738 152.236 98.0561 152.841 99.0206C153.447 99.9392 153.749 101.019 153.749 102.259Z" fill="#FEFEFE"/>
</svg>
