<svg width="65" height="65" viewBox="0 0 65 65" fill="none" xmlns="http://www.w3.org/2000/svg">
<path d="M32.0157 27.9663C29.2543 27.9663 27.0157 30.2049 27.0157 32.9663C27.0157 35.7277 29.2543 37.9663 32.0157 37.9663C34.7771 37.9663 37.0157 35.7277 37.0157 32.9663H64.0157C64.0157 50.6394 49.6888 64.9663 32.0157 64.9663C14.3426 64.9663 0.0157471 50.6394 0.0157471 32.9663C0.0157471 15.2932 14.3426 0.966309 32.0157 0.966309C49.6888 0.966309 64.0157 15.2932 64.0157 32.9663H37.0157C37.0157 30.2049 34.7771 27.9663 32.0157 27.9663Z" fill="black"/>
<path d="M30.0301 1.0405C38.6815 0.587101 46.8572 3.2462 52.8614 8.6126L43.0795 22.1559C40.0043 18.9268 35.6032 17.0114 30.8173 17.2622C22.0896 17.7196 15.3874 25.2081 15.8475 33.9883C16.3077 42.7686 23.7559 49.5155 32.4837 49.0581C36.7653 48.8337 40.558 46.9157 43.2582 43.9846L51.8614 58.1126C46.8461 62.2054 40.2615 64.5921 33.3168 64.9561C15.8614 65.8709 0.964851 52.377 0.0445488 34.8165C-0.875754 17.2561 12.5746 1.9553 30.0301 1.0405Z" fill="#D5962F"/>
</svg>
