<svg width="48" height="35" viewBox="0 0 48 35" fill="none" xmlns="http://www.w3.org/2000/svg">
<path d="M28.5061 4.64686C28.0169 4.12306 27.7506 3.43026 27.7632 2.71441C27.7759 1.99857 28.0665 1.31557 28.5739 0.80931C29.0813 0.303051 29.7659 0.0130608 30.4833 0.00043049C31.2008 -0.0121998 31.8951 0.253516 32.4201 0.741601L47.1901 15.4784C47.7087 15.9965 48 16.6988 48 17.4311C48 18.1633 47.7087 18.8656 47.1901 19.3837L32.4201 34.1206C32.1666 34.392 31.8608 34.6098 31.5211 34.7608C31.1814 34.9118 30.8147 34.993 30.4429 34.9996C30.071 35.0061 29.7017 34.9379 29.3568 34.7989C29.012 34.6599 28.6987 34.4531 28.4358 34.1907C28.1728 33.9283 27.9655 33.6158 27.8262 33.2717C27.6869 32.9276 27.6185 32.5591 27.6251 32.1881C27.6316 31.8171 27.713 31.4512 27.8644 31.1123C28.0157 30.7733 28.234 30.4683 28.5061 30.2153L38.5497 20.1942H2.76937C2.03489 20.1942 1.33049 19.9031 0.81113 19.3849C0.291772 18.8667 0 18.1639 0 17.4311C0 16.6982 0.291772 15.9954 0.81113 15.4772C1.33049 14.959 2.03489 14.6679 2.76937 14.6679H38.5497L28.5061 4.64686Z" fill="#1A1A1A"/>
</svg>
